<?xml version="1.0" standalone="no"?><!DOCTYPE svg PUBLIC "-//W3C//DTD SVG 1.1//EN" "http://www.w3.org/Graphics/SVG/1.1/DTD/svg11.dtd"><svg t="1635990821988" class="icon" viewBox="0 0 1024 1024" version="1.1" xmlns="http://www.w3.org/2000/svg" p-id="5512" xmlns:xlink="http://www.w3.org/1999/xlink" width="200" height="200"><defs><style type="text/css"></style></defs><path d="M844.37528456 189.84035588c-12.81316766 0-19.21975149-3.66090506-26.54156159-8.23703636-8.23703635-5.49135757-16.4740727-10.98271516-33.8633717-10.98271514-17.38929897 0-26.54156159 5.49135757-33.86337167 10.98271514-7.3218101 4.5761313-12.81316766 8.23703635-26.54156159 8.23703636s-19.21975149-3.66090506-26.54156157-8.23703636c-8.23703635-5.49135757-17.38929897-10.98271516-33.86337171-10.98271514s-26.54156159 5.49135757-33.86337167 10.98271514c-7.3218101 4.5761313-12.81316766 8.23703635-26.54156163 8.23703636-12.81316766 0-19.21975149-3.66090506-26.54156158-8.23703636-8.23703635-5.49135757-16.4740727-10.98271516-33.86337168-10.98271514-17.38929897 0-26.54156159 5.49135757-33.86337166 10.98271514-7.3218101 4.5761313-13.72839391 8.23703635-26.5415616 8.23703636s-19.21975149-3.66090506-26.54156159-8.23703636c-8.23703635-5.49135757-16.4740727-10.98271516-33.86337166-10.98271514-17.38929897 0-26.54156159 5.49135757-33.86337171 10.98271514-7.3218101 4.5761313-13.72839391 8.23703635-26.54156159 8.23703636s-19.21975149-3.66090506-26.54156157-8.23703636c-8.23703635-5.49135757-17.38929897-10.98271516-33.86337169-10.98271514-17.38929897 0-26.54156159 5.49135757-33.86337169 10.98271514-7.3218101 4.5761313-12.81316766 8.23703635-26.54156158 8.23703636-3.66090506 0-7.3218101 3.66090506-7.3218101 7.32181009s3.66090506 7.3218101 7.3218101 7.32181008c17.38929897 0 26.54156159-5.49135757 33.86337167-10.98271512 7.3218101-4.5761313 13.72839391-8.23703635 26.5415616-8.23703634s19.21975149 3.66090506 26.54156158 8.23703634c8.23703635 5.49135757 17.38929897 10.98271516 33.86337168 10.98271512 17.38929897 0 26.54156159-5.49135757 33.86337167-10.98271512 7.3218101-4.5761313 13.72839391-8.23703635 26.54156163-8.23703634s19.21975149 3.66090506 26.54156157 8.23703634c8.23703635 5.49135757 16.4740727 10.98271516 33.86337168 10.98271512 17.38929897 0 26.54156159-5.49135757 33.8633717-10.98271512 7.3218101-4.5761313 13.72839391-8.23703635 26.54156156-8.23703634s19.21975149 3.66090506 26.5415616 8.23703634c8.23703635 5.49135757 16.4740727 10.98271516 33.86337166 10.98271512 17.38929897 0 26.54156159-5.49135757 33.86337172-10.98271512 7.3218101-4.5761313 12.81316766-8.23703635 26.54156158-8.23703634 12.81316766 0 19.21975149 3.66090506 26.54156157 8.23703634 8.23703635 5.49135757 17.38929897 10.98271516 33.86337171 10.98271512s26.54156159-5.49135757 33.86337168-10.98271512c7.3218101-4.5761313 12.81316766-8.23703635 26.54156158-8.23703634 12.81316766 0 19.21975149 3.66090506 25.62633533 8.23703634 8.23703635 5.49135757 17.38929897 10.98271516 33.8633717 10.98271512 3.66090506 0 7.3218101-3.66090506 7.32181008-7.32181008 0.91522626-3.66090506-2.74567878-7.3218101-6.40658382-7.32181009z m53.08312316 650.72587209c-19.21975149 0-29.28724036 5.49135757-38.43950298 10.98271512-8.23703635 4.5761313-15.55884645 9.15226261-31.11769289 9.15226263s-22.88065653-3.66090506-31.11769289-9.15226263c-9.15226261-4.5761313-19.21975149-10.98271516-38.43950301-10.98271512s-29.28724036 5.49135757-38.43950298 10.98271512c-8.23703635 4.5761313-15.55884645 9.15226261-31.11769291 9.15226263s-22.88065653-3.66090506-31.11769291-9.15226263c-9.15226261-4.5761313-19.21975149-10.98271516-38.43950296-10.98271512s-29.28724036 5.49135757-38.43950303 10.98271512c-8.23703635 4.5761313-15.55884645 9.15226261-31.1176929 9.15226263s-22.88065653-3.66090506-31.11769287-9.15226263c-9.15226261-4.5761313-19.21975149-10.98271516-38.43950302-10.98271512s-29.28724036 5.49135757-38.43950295 10.98271512c-8.23703635 4.5761313-15.55884645 9.15226261-31.11769292 9.15226263s-22.88065653-3.66090506-31.1176929-9.15226263c-9.15226261-4.5761313-19.21975149-10.98271516-38.43950297-10.98271512s-29.28724036 5.49135757-38.43950303 10.98271512c-8.23703635 4.5761313-15.55884645 9.15226261-31.1176929 9.15226263s-22.88065653-3.66090506-31.11769287-9.15226263c-9.15226261-4.5761313-19.21975149-10.98271516-38.43950301-10.98271512-3.66090506 0-7.3218101 3.66090506-7.32181008 7.32181008s3.66090506 7.3218101 7.32181008 7.32181011c15.55884645 0 22.88065653 3.66090506 31.11769291 9.15226261 9.15226261 5.49135757 19.21975149 10.98271516 38.43950297 10.98271513s29.28724036-5.49135757 38.439503-10.98271513c8.23703635-4.5761313 15.55884645-9.15226261 31.11769293-9.15226261s22.88065653 3.66090506 31.11769288 9.15226261c9.15226261 5.49135757 19.21975149 10.98271516 38.43950299 10.98271513s29.28724036-5.49135757 38.439503-10.98271513c8.23703635-4.5761313 15.55884645-9.15226261 31.11769287-9.15226261s22.88065653 3.66090506 31.11769293 9.15226261c9.15226261 5.49135757 19.21975149 10.98271516 38.43950296 10.98271513s29.28724036-5.49135757 38.43950301-10.98271513c8.23703635-4.5761313 15.55884645-9.15226261 31.11769292-9.15226261s22.88065653 3.66090506 31.11769287 9.15226261c9.15226261 5.49135757 19.21975149 10.98271516 38.439503 10.98271513s29.28724036-5.49135757 38.43950299-10.98271513c8.23703635-4.5761313 15.55884645-9.15226261 31.1176929-9.15226261s22.88065653 3.66090506 31.11769287 9.15226261c9.15226261 5.49135757 19.21975149 10.98271516 38.43950303 10.98271513s29.28724036-5.49135757 38.43950298-10.98271513c8.23703635-4.5761313 15.55884645-9.15226261 31.11769289-9.15226261 3.66090506 0 7.3218101-3.66090506 7.3218101-7.32181011s-3.66090506-7.3218101-7.3218101-7.32181008z m0-31.11769292c-19.21975149 0-29.28724036 5.49135757-38.43950298 10.98271516-8.23703635 4.5761313-15.55884645 9.15226261-31.11769289 9.1522626s-22.88065653-3.66090506-31.11769289-9.1522626c-9.15226261-4.5761313-19.21975149-10.98271516-38.43950301-10.98271516s-29.28724036 5.49135757-38.43950298 10.98271516c-8.23703635 4.5761313-15.55884645 9.15226261-31.11769291 9.1522626s-22.88065653-3.66090506-31.11769291-9.1522626c-9.15226261-4.5761313-19.21975149-10.98271516-38.43950296-10.98271516s-29.28724036 5.49135757-38.43950303 10.98271516c-8.23703635 4.5761313-15.55884645 9.15226261-31.1176929 9.1522626s-22.88065653-3.66090506-31.11769287-9.1522626c-9.15226261-4.5761313-19.21975149-10.98271516-38.43950302-10.98271516s-29.28724036 5.49135757-38.43950295 10.98271516c-8.23703635 4.5761313-15.55884645 9.15226261-31.11769292 9.1522626s-22.88065653-3.66090506-31.1176929-9.1522626c-9.15226261-4.5761313-19.21975149-10.98271516-38.43950297-10.98271516s-29.28724036 5.49135757-38.43950303 10.98271516c-8.23703635 4.5761313-15.55884645 9.15226261-31.1176929 9.1522626s-22.88065653-3.66090506-31.11769287-9.1522626c-9.15226261-4.5761313-19.21975149-10.98271516-38.43950301-10.98271516-3.66090506 0-7.3218101 3.66090506-7.32181008 7.32181009s3.66090506 7.3218101 7.32181008 7.3218101c15.55884645 0 22.88065653 3.66090506 31.11769291 9.15226262 9.15226261 5.49135757 19.21975149 10.98271516 38.43950297 10.98271514s29.28724036-5.49135757 38.439503-10.98271514c8.23703635-4.5761313 15.55884645-9.15226261 31.11769293-9.15226262s22.88065653 3.66090506 31.11769288 9.15226262c9.15226261 5.49135757 19.21975149 10.98271516 38.43950299 10.98271514s29.28724036-5.49135757 38.439503-10.98271514c8.23703635-4.5761313 15.55884645-9.15226261 31.11769287-9.15226262s22.88065653 3.66090506 31.11769293 9.15226262c9.15226261 5.49135757 19.21975149 10.98271516 38.43950296 10.98271514s29.28724036-5.49135757 38.43950301-10.98271514c8.23703635-4.5761313 15.55884645-9.15226261 31.11769292-9.15226262s22.88065653 3.66090506 31.11769287 9.15226262c9.15226261 5.49135757 19.21975149 10.98271516 38.439503 10.98271514s29.28724036-5.49135757 38.43950299-10.98271514c8.23703635-4.5761313 15.55884645-9.15226261 31.1176929-9.15226262s22.88065653 3.66090506 31.11769287 9.15226262c9.15226261 5.49135757 19.21975149 10.98271516 38.43950303 10.98271514s29.28724036-5.49135757 38.43950298-10.98271514c8.23703635-4.5761313 15.55884645-9.15226261 31.11769289-9.15226262 3.66090506 0 7.3218101-3.66090506 7.3218101-7.3218101 0-4.5761313-3.66090506-7.3218101-7.3218101-7.32181009z m0-64.06583829c-19.21975149 0-29.28724036 5.49135757-38.43950298 10.98271511-8.23703635 4.5761313-15.55884645 9.15226261-31.11769289 9.15226264-7.3218101 0-11.8979414-0.91522626-17.38929896-1.83045254 40.26995552-8.23703635 69.5571959-43.01563429 69.55719585-84.20081606v-302.02466638c0-21.05020402-8.23703635-41.18518177-21.96543027-55.82880196l-2.74567878-8.23703636c0-0.91522626-0.91522626-1.83045253-0.91522626-2.74567878-0.91522626-2.74567878-2.74567878-6.40658382-4.57613132-9.15226262 0 0 0-0.91522626-0.91522624-0.91522625-1.83045253-3.66090506-3.66090506-6.40658382-6.40658385-9.15226262l-2.74567878-2.74567879c-1.83045253-1.83045253-2.74567878-3.66090506-4.57613129-5.49135756l-3.66090506-3.66090508-1.83045253-1.83045252-2.74567877-2.74567875-2.74567878-2.74567881c-2.74567878-1.83045253-6.40658382-4.5761313-9.15226263-6.40658382h-0.91522625c-2.74567878-1.83045253-5.49135757-2.74567878-8.23703637-4.57613133-0.91522626 0-1.83045253-0.91522626-2.74567877-0.91522625-3.66090506-0.91522626-6.40658382-2.74567878-10.06748889-3.66090506-0.91522626 0-1.83045253 0-1.83045253-0.91522625-2.74567878-0.91522626-5.49135757-0.91522626-8.23703634-1.83045253-0.91522626 0-1.83045253 0-2.74567881-0.91522626-3.66090506 0-7.3218101-0.91522626-10.98271513-0.91522626h-25.62633533c6.40658382-1.83045253 10.98271516-5.49135757 15.55884646-8.23703636 7.3218101-4.5761313 12.81316766-8.23703635 26.5415616-8.23703635 12.81316766 0 19.21975149 3.66090506 25.62633531 8.23703635 8.23703635 5.49135757 17.38929897 10.98271516 33.86337168 10.98271513 3.66090506 0 7.3218101-3.66090506 7.32181009-7.32181008s-3.66090506-7.3218101-7.32181009-7.32181009c-12.81316766 0-19.21975149-3.66090506-26.54156158-8.23703636-8.23703635-5.49135757-16.4740727-10.98271516-33.86337171-10.98271514-17.38929897 0-26.54156159 5.49135757-33.86337167 10.98271514-7.3218101 4.5761313-12.81316766 8.23703635-26.54156159 8.23703636s-19.21975149-3.66090506-26.54156159-8.23703636c-8.23703635-5.49135757-17.38929897-10.98271516-33.86337167-10.98271514s-26.54156159 5.49135757-33.86337169 10.98271514c-7.3218101 4.5761313-12.81316766 8.23703635-26.54156157 8.23703636-12.81316766 0-19.21975149-3.66090506-26.54156162-8.23703636-8.23703635-5.49135757-16.4740727-10.98271516-33.86337168-10.98271514-17.38929897 0-26.54156159 5.49135757-33.86337166 10.98271514-7.3218101 4.5761313-13.72839391 8.23703635-26.54156163 8.23703636s-19.21975149-3.66090506-26.54156155-8.23703636c-8.23703635-5.49135757-16.4740727-10.98271516-33.8633717-10.98271514-17.38929897 0-26.54156159 5.49135757-33.86337168 10.98271514-7.3218101 4.5761313-13.72839391 8.23703635-26.54156159 8.23703636s-19.21975149-3.66090506-26.5415616-8.23703636c-8.23703635-5.49135757-17.38929897-10.98271516-33.86337167-10.98271514-17.38929897 0-26.54156159 5.49135757-33.86337168 10.98271514-7.3218101 4.5761313-12.81316766 8.23703635-26.54156159 8.23703636-3.66090506 0-7.3218101 3.66090506-7.32181008 7.32181009s3.66090506 7.3218101 7.32181008 7.32181008c17.38929897 0 26.54156159-5.49135757 33.86337167-10.98271513 7.3218101-4.5761313 13.72839391-8.23703635 26.5415616-8.23703635s19.21975149 3.66090506 26.5415616 8.23703635c4.5761313 2.74567878 9.15226261 5.49135757 15.55884644 8.23703636h-15.55884644C275.10454976 252.07574167 233.00414173 295.09137598 233.00414173 347.25927289v306.60079768c0 2.74567878 0 6.40658382 0.91522628 9.15226262 0 0.91522626 0 1.83045253 0.91522625 3.66090504 0 1.83045253 0.91522626 3.66090506 0.91522625 5.49135759 0 0.91522626 0.91522626 2.74567878 0.91522628 3.66090503 0 1.83045253 0.91522626 3.66090506 0.91522624 4.57613131 0 0.91522626 0.91522626 2.74567878 0.91522627 3.66090505 0.91522626 1.83045253 0.91522626 2.74567878 1.83045253 4.5761313 0.91522626 0.91522626 0.91522626 2.74567878 1.83045253 3.66090506 0.91522626 1.83045253 1.83045253 2.74567878 1.83045252 4.5761313 0.91522626 0.91522626 0.91522626 2.74567878 1.8304525 3.66090506 0.91522626 1.83045253 1.83045253 2.74567878 2.7456788 4.5761313 0.91522626 0.91522626 0.91522626 1.83045253 1.83045253 2.74567877 0.91522626 1.83045253 1.83045253 2.74567878 3.66090505 4.57613132 0.91522626 0.91522626 0.91522626 1.83045253 1.83045252 2.74567878 0.91522626 1.83045253 2.74567878 2.74567878 3.66090503 4.57613132l1.83045253 1.83045251 4.57613131 4.57613131 1.83045253 1.83045253c1.83045253 1.83045253 3.66090506 2.74567878 5.49135755 4.57613129l0.91522627 0.91522627c2.74567878 1.83045253 4.5761313 2.74567878 7.3218101 4.57613132 5.49135757 2.74567878 10.98271516 5.49135757 16.47407269 7.32181011 0.91522626 0 0.91522626 0 1.83045253 0.91522625 1.83045253 0.91522626 4.5761313 0.91522626 6.40658383 1.83045249 0.91522626 0 1.83045253 0 2.7456788 0.91522626l2.74567878 2.74567881c-5.49135757 1.83045253-10.06748889 4.5761313-13.72839394 6.40658382-8.23703635 4.5761313-15.55884645 9.15226261-31.11769288 9.15226264s-22.88065653-3.66090506-31.1176929-9.15226264c-9.15226261-4.5761313-19.21975149-10.98271516-38.43950301-10.98271513-3.66090506 0-7.3218101 3.66090506-7.32181007 7.32181009s3.66090506 7.3218101 7.32181007 7.32181011c15.55884645 0 22.88065653 3.66090506 31.11769292 9.15226261 9.15226261 5.49135757 19.21975149 10.98271516 38.43950299 10.98271513s29.28724036-5.49135757 38.43950298-10.98271513c6.40658382-3.66090506 11.8979414-6.40658382 21.05020404-8.23703635 1.83045253 0.91522626 3.66090506 2.74567878 5.49135757 3.66090505 3.66090506 0 7.3218101 0.91522626 10.98271514 0.91522626h18.30452522c2.74567878 0.91522626 5.49135757 2.74567878 8.23703637 3.66090504 9.15226261 5.49135757 19.21975149 10.98271516 38.43950296 10.98271513s29.28724036-5.49135757 38.43950302-10.98271513c2.74567878-1.83045253 5.49135757-2.74567878 8.23703635-3.66090504h46.67653934c2.74567878 0.91522626 5.49135757 2.74567878 8.23703638 3.66090504 9.15226261 5.49135757 19.21975149 10.98271516 38.43950298 10.98271513s29.28724036-5.49135757 38.43950299-10.98271513c2.74567878-1.83045253 5.49135757-2.74567878 8.23703635-3.66090504h46.67653935c2.74567878 0.91522626 5.49135757 2.74567878 8.23703635 3.66090504 9.15226261 5.49135757 19.21975149 10.98271516 38.439503 10.98271513s29.28724036-5.49135757 38.43950301-10.98271513c2.74567878-1.83045253 5.49135757-2.74567878 8.23703634-3.66090504h46.67653934c2.74567878 0.91522626 5.49135757 2.74567878 8.23703634 3.66090504 9.15226261 5.49135757 19.21975149 10.98271516 38.43950302 10.98271513s29.28724036-5.49135757 38.43950298-10.98271513c8.23703635-4.5761313 15.55884645-9.15226261 31.11769289-9.15226261 3.66090506 0 7.3218101-3.66090506 7.32181011-7.32181011 0-5.49135757-3.66090506-9.15226261-7.32181011-9.15226259z m-489.64605003 19.21975147h-5.49135756 11.89794143-6.40658387z m-27.45678785-512.52670656c6.40658382-1.83045253 10.98271516-5.49135757 15.55884646-8.23703636 7.3218101-4.5761313 13.72839391-8.23703635 26.5415616-8.23703635s19.21975149 3.66090506 26.5415616 8.23703635c4.5761313 2.74567878 9.15226261 5.49135757 15.55884645 8.23703636h-84.20081611z m167.48640592 512.52670656h-5.49135759 11.89794142-6.40658383z m-46.67653936-512.52670656c6.40658382-1.83045253 10.98271516-5.49135757 15.55884647-8.23703636 7.3218101-4.5761313 13.72839391-8.23703635 26.54156157-8.23703635s19.21975149 3.66090506 26.54156159 8.23703635c4.5761313 2.74567878 9.15226261 5.49135757 15.55884646 8.23703636h-84.20081609z m185.79093115 512.52670656h-5.49135758 11.8979414-6.40658382z m-64.98106458-512.52670656c6.40658382-1.83045253 10.98271516-5.49135757 15.55884645-8.23703636 7.3218101-4.5761313 12.81316766-8.23703635 26.54156158-8.23703635 12.81316766 0 19.21975149 3.66090506 26.54156156 8.23703635 4.5761313 2.74567878 9.15226261 5.49135757 15.55884649 8.23703636h-84.20081608z" fill="#C4ADAD" p-id="5513"></path><path d="M794.95306643 244.75393157c-17.38929897 0-25.62633533-5.49135757-33.86337168-10.06748887-7.3218101-4.5761313-13.72839391-8.23703635-26.5415616-8.23703635s-19.21975149 3.66090506-26.54156159 8.23703635c-8.23703635 4.5761313-16.4740727 10.06748889-33.86337168 10.06748887-17.38929897 0-25.62633533-5.49135757-33.8633717-10.06748887-7.3218101-4.5761313-13.72839391-8.23703635-26.54156157-8.23703635s-19.21975149 3.66090506-26.54156163 8.23703635c-8.23703635 4.5761313-16.4740727 10.06748889-33.86337165 10.06748887s-25.62633533-5.49135757-33.86337166-10.06748887c-7.3218101-4.5761313-13.72839391-8.23703635-26.54156163-8.23703635s-19.21975149 3.66090506-26.54156157 8.23703635c-8.23703635 4.5761313-16.4740727 10.06748889-33.86337169 10.06748887-17.38929897 0-25.62633533-5.49135757-33.86337168-10.06748887-7.3218101-4.5761313-13.72839391-8.23703635-26.54156159-8.23703635s-19.21975149 3.66090506-26.5415616 8.23703635c-8.23703635 4.5761313-16.4740727 10.06748889-33.86337168 10.06748887-17.38929897 0-25.62633533-5.49135757-33.86337169-10.06748887-7.3218101-4.5761313-13.72839391-8.23703635-26.54156158-8.23703635s-19.21975149 3.66090506-26.54156161 8.23703635c-8.23703635 4.5761313-16.4740727 10.06748889-33.86337167 10.06748887-3.66090506 0-7.3218101-2.74567878-7.32181009-7.32181009s2.74567878-7.3218101 7.32181009-7.3218101c12.81316766 0 19.21975149-3.66090506 26.5415616-8.23703635 8.23703635-4.5761313 16.4740727-10.06748889 33.86337168-10.06748888s25.62633533 5.49135757 33.86337168 10.06748888c7.3218101 4.5761313 13.72839391 8.23703635 26.54156159 8.23703635s19.21975149-3.66090506 26.54156161-8.23703635c8.23703635-4.5761313 16.4740727-10.06748889 33.86337167-10.06748888s25.62633533 5.49135757 33.86337167 10.06748888c7.3218101 4.5761313 13.72839391 8.23703635 26.5415616 8.23703635s19.21975149-3.66090506 26.5415616-8.23703635c8.23703635-4.5761313 16.4740727-10.06748889 33.86337166-10.06748888s25.62633533 5.49135757 33.86337169 10.06748888c7.3218101 4.5761313 13.72839391 8.23703635 26.5415616 8.23703635s19.21975149-3.66090506 26.54156159-8.23703635c8.23703635-4.5761313 16.4740727-10.06748889 33.86337169-10.06748888 17.38929897 0 25.62633533 5.49135757 33.86337167 10.06748888 7.3218101 4.5761313 13.72839391 8.23703635 26.5415616 8.23703635s19.21975149-3.66090506 26.5415616-8.23703635c8.23703635-4.5761313 16.4740727-10.06748889 33.86337167-10.06748888 17.38929897 0 25.62633533 5.49135757 33.86337167 10.06748888 7.3218101 4.5761313 13.72839391 8.23703635 26.54156161 8.23703635 3.66090506 0 7.3218101 2.74567878 7.3218101 7.3218101s-3.66090506 7.3218101-7.3218101 7.32181009zM794.95306643 193.50126093c-17.38929897 0-25.62633533-5.49135757-33.86337168-10.0674889-7.3218101-4.5761313-13.72839391-8.23703635-26.5415616-8.23703635s-19.21975149 3.66090506-26.54156159 8.23703635c-8.23703635 4.5761313-16.4740727 10.06748889-33.86337168 10.0674889-17.38929897 0-25.62633533-5.49135757-33.8633717-10.0674889-7.3218101-4.5761313-13.72839391-8.23703635-26.54156157-8.23703635s-19.21975149 3.66090506-26.54156163 8.23703635c-8.23703635 4.5761313-16.4740727 10.06748889-33.86337165 10.0674889s-25.62633533-5.49135757-33.86337166-10.0674889c-7.3218101-4.5761313-13.72839391-8.23703635-26.54156163-8.23703635s-19.21975149 3.66090506-26.54156157 8.23703635c-8.23703635 4.5761313-16.4740727 10.06748889-33.86337169 10.0674889-17.38929897 0-25.62633533-5.49135757-33.86337168-10.0674889-7.3218101-4.5761313-13.72839391-8.23703635-26.54156159-8.23703635s-19.21975149 3.66090506-26.5415616 8.23703635c-8.23703635 4.5761313-16.4740727 10.06748889-33.86337168 10.0674889-17.38929897 0-25.62633533-5.49135757-33.86337169-10.0674889-7.3218101-4.5761313-13.72839391-8.23703635-26.54156158-8.23703635s-19.21975149 3.66090506-26.54156161 8.23703635c-8.23703635 4.5761313-16.4740727 10.06748889-33.86337167 10.0674889-3.66090506 0-7.3218101-2.74567878-7.32181009-7.3218101s2.74567878-7.3218101 7.32181009-7.3218101c12.81316766 0 19.21975149-3.66090506 26.5415616-8.23703635 8.23703635-4.5761313 16.4740727-10.06748889 33.86337168-10.06748888s25.62633533 5.49135757 33.86337168 10.06748888c7.3218101 4.5761313 13.72839391 8.23703635 26.54156159 8.23703635s19.21975149-3.66090506 26.54156161-8.23703635c8.23703635-4.5761313 16.4740727-10.06748889 33.86337167-10.06748888s25.62633533 5.49135757 33.86337167 10.06748888c7.3218101 4.5761313 13.72839391 8.23703635 26.5415616 8.23703635s19.21975149-3.66090506 26.5415616-8.23703635c8.23703635-4.5761313 16.4740727-10.06748889 33.86337166-10.06748888s25.62633533 5.49135757 33.86337169 10.06748888c7.3218101 4.5761313 13.72839391 8.23703635 26.5415616 8.23703635s19.21975149-3.66090506 26.54156159-8.23703635c8.23703635-4.5761313 16.4740727-10.06748889 33.86337169-10.06748888 17.38929897 0 25.62633533 5.49135757 33.86337167 10.06748888 7.3218101 4.5761313 13.72839391 8.23703635 26.5415616 8.23703635s19.21975149-3.66090506 26.5415616-8.23703635c8.23703635-4.5761313 16.4740727-10.06748889 33.86337167-10.06748888 17.38929897 0 25.62633533 5.49135757 33.86337167 10.06748888 7.3218101 4.5761313 13.72839391 8.23703635 26.54156161 8.23703635 3.66090506 0 7.3218101 2.74567878 7.3218101 7.3218101s-3.66090506 7.3218101-7.3218101 7.3218101zM778.47899369 864.36211077c-19.21975149 0-29.28724036-5.49135757-38.43950297-10.06748889-8.23703635-4.5761313-15.55884645-8.23703635-32.03291916-8.23703637-15.55884645 0-22.88065653 3.66090506-32.03291917 8.23703637s-19.21975149 10.06748889-38.43950297 10.06748889-29.28724036-5.49135757-38.43950301-10.06748889c-8.23703635-4.5761313-15.55884645-8.23703635-32.03291918-8.23703637-15.55884645 0-22.88065653 3.66090506-32.03291914 8.23703637s-19.21975149 10.06748889-38.43950299 10.06748889-29.28724036-5.49135757-38.439503-10.06748889c-8.23703635-4.5761313-15.55884645-8.23703635-32.03291914-8.23703637-15.55884645 0-22.88065653 3.66090506-32.0329192 8.23703637s-19.21975149 10.06748889-38.43950296 10.06748889-29.28724036-5.49135757-38.43950297-10.06748889c-8.23703635-4.5761313-15.55884645-8.23703635-32.03291919-8.23703637-15.55884645 0-22.88065653 3.66090506-32.03291916 8.23703637s-19.21975149 10.06748889-38.43950298 10.06748889-29.28724036-5.49135757-38.43950299-10.06748889c-8.23703635-4.5761313-15.55884645-8.23703635-32.03291917-8.23703637-3.66090506 0-7.3218101-2.74567878-7.32181008-7.3218101s2.74567878-7.3218101 7.32181008-7.32181009c19.21975149 0 29.28724036 5.49135757 38.43950299 10.0674889 8.23703635 4.5761313 15.55884645 8.23703635 32.03291917 8.23703636 15.55884645 0 22.88065653-3.66090506 32.03291915-8.23703636s19.21975149-10.06748889 38.43950299-10.0674889 29.28724036 5.49135757 38.43950299 10.0674889c8.23703635 4.5761313 15.55884645 8.23703635 32.03291917 8.23703636s22.88065653-3.66090506 32.03291915-8.23703636 19.21975149-10.06748889 38.43950301-10.0674889 29.28724036 5.49135757 38.43950299 10.0674889c8.23703635 4.5761313 15.55884645 8.23703635 32.03291915 8.23703636 15.55884645 0 22.88065653-3.66090506 32.03291916-8.23703636s19.21975149-10.06748889 38.43950297-10.0674889 29.28724036 5.49135757 38.43950303 10.0674889c8.23703635 4.5761313 15.55884645 8.23703635 32.03291916 8.23703636s22.88065653-3.66090506 32.03291912-8.23703636 19.21975149-10.06748889 38.43950302-10.0674889 29.28724036 5.49135757 38.439503 10.0674889c8.23703635 4.5761313 15.55884645 8.23703635 32.03291913 8.23703636 15.55884645 0 22.88065653-3.66090506 32.0329192-8.23703636s19.21975149-10.06748889 38.43950298-10.0674889c3.66090506 0 7.3218101 2.74567878 7.32181007 7.32181009s-2.74567878 7.3218101-7.32181007 7.3218101c-15.55884645 0-22.88065653 3.66090506-32.03291915 8.23703637s-19.21975149 10.06748889-38.43950303 10.06748889z" fill="#961919" p-id="5514"></path><path d="M778.47899369 832.32919159c-19.21975149 0-29.28724036-5.49135757-38.43950297-10.06748888-8.23703635-4.5761313-15.55884645-8.23703635-32.03291916-8.23703635-15.55884645 0-22.88065653 3.66090506-32.03291917 8.23703635s-19.21975149 10.06748889-38.43950297 10.06748888-29.28724036-5.49135757-38.43950301-10.06748888c-8.23703635-4.5761313-15.55884645-8.23703635-32.03291918-8.23703635-15.55884645 0-22.88065653 3.66090506-32.03291914 8.23703635s-19.21975149 10.06748889-38.43950299 10.06748888-29.28724036-5.49135757-38.439503-10.06748888c-8.23703635-4.5761313-15.55884645-8.23703635-32.03291914-8.23703635-15.55884645 0-22.88065653 3.66090506-32.0329192 8.23703635s-19.21975149 10.06748889-38.43950296 10.06748888-29.28724036-5.49135757-38.43950297-10.06748888c-8.23703635-4.5761313-15.55884645-8.23703635-32.03291919-8.23703635-15.55884645 0-22.88065653 3.66090506-32.03291916 8.23703635S233.91936801 832.32919159 214.6996165 832.32919159s-29.28724036-5.49135757-38.43950299-10.06748888c-8.23703635-4.5761313-15.55884645-8.23703635-32.03291917-8.23703635-3.66090506 0-7.3218101-2.74567878-7.32181008-7.3218101s2.74567878-7.3218101 7.32181008-7.32181008c19.21975149 0 29.28724036 5.49135757 38.43950299 10.06748887 8.23703635 4.5761313 15.55884645 8.23703635 32.03291917 8.23703636 15.55884645 0 22.88065653-3.66090506 32.03291915-8.23703636s19.21975149-10.06748889 38.43950299-10.06748887 29.28724036 5.49135757 38.43950299 10.06748887c8.23703635 4.5761313 15.55884645 8.23703635 32.03291917 8.23703636s22.88065653-3.66090506 32.03291915-8.23703636 19.21975149-10.06748889 38.43950301-10.06748887 29.28724036 5.49135757 38.43950299 10.06748887c8.23703635 4.5761313 15.55884645 8.23703635 32.03291915 8.23703636 15.55884645 0 22.88065653-3.66090506 32.03291916-8.23703636s19.21975149-10.06748889 38.43950297-10.06748887 29.28724036 5.49135757 38.43950303 10.06748887c8.23703635 4.5761313 15.55884645 8.23703635 32.03291916 8.23703636s22.88065653-3.66090506 32.03291912-8.23703636 19.21975149-10.06748889 38.43950302-10.06748887 29.28724036 5.49135757 38.439503 10.06748887c8.23703635 4.5761313 15.55884645 8.23703635 32.03291913 8.23703636 15.55884645 0 22.88065653-3.66090506 32.0329192-8.23703636s19.21975149-10.06748889 38.43950298-10.06748887c3.66090506 0 7.3218101 2.74567878 7.32181007 7.32181008s-2.74567878 7.3218101-7.32181007 7.3218101c-15.55884645 0-22.88065653 3.66090506-32.03291915 8.23703635s-19.21975149 10.06748889-38.43950303 10.06748888z" fill="#961919" p-id="5515"></path><path d="M805.93578156 337.19178399v307.51602395c0 47.59176558-39.35472924 86.94649486-86.94649485 86.94649488H278.76545481c-3.66090506 0-7.3218101 0-10.98271513-0.91522628-43.01563429-5.49135757-76.87900598-42.10040802-76.879006-86.94649487V337.19178399c0-47.59176558 39.35472924-86.94649486 86.94649486-86.94649484H718.07406043c15.55884645 0 30.20246662 3.66090506 43.01563432 10.98271513 26.54156159 15.55884645 44.84608682 43.93086055 44.84608681 75.96377971z" fill="#FFFFFF" p-id="5516"></path><path d="M840.7143795 366.47902436v302.02466639c0 47.59176558-40.26995552 86.03126862-88.77694739 86.0312686h-448.46086824c-3.66090506 0-7.3218101 0-10.98271514-0.91522625-26.54156159-14.64362017-44.84608682-43.01563429-44.84608681-75.04855346v-302.02466637c0-47.59176558 40.26995552-86.03126862 88.77694739-86.0312686h448.46086822c3.66090506 0 7.3218101 0 10.98271514 0.91522627 26.54156159 15.55884645 44.84608682 43.01563429 44.84608683 75.04855342z" fill="#B7E2F9" p-id="5517"></path><path d="M805.93578156 341.76791532v302.02466635c0 47.59176558-40.26995552 86.03126862-88.77694738 86.03126862h-43.93086057c41.18518177-8.23703635 73.21810095-43.93086055 73.21810095-86.03126862v-311.17692897c0-26.54156159-11.8979414-50.33744441-31.11769291-66.81151709h34.77859795c3.66090506 0 7.3218101 0 10.98271515 0.91522626 26.54156159 14.64362017 44.84608682 43.01563429 44.84608681 75.04855345z" fill="#54D8FC" p-id="5518"></path><path d="M191.81895994 425.96873138c-3.66090506 0-7.3218101-2.74567878-7.32181008-7.32181009v-45.76131306c0-3.66090506 2.74567878-7.3218101 7.32181008-7.32181008s7.3218101 2.74567878 7.32181009 7.32181008v45.76131306c-0.91522626 4.5761313-3.66090506 7.3218101-7.32181009 7.32181009z" fill="#961919" p-id="5519"></path><path d="M718.98928671 738.06088665H278.76545481c-52.16789693 0-94.26830495-42.10040802-94.26830495-94.26830498V446.10370914c0-3.66090506 2.74567878-7.3218101 7.32181008-7.32181009s7.3218101 2.74567878 7.32181009 7.32181009v198.6040988c0 43.93086055 35.6938242 80.53991103 80.53991103 80.53991104h440.22383191c5.49135757 0 10.98271516-0.91522626 16.47407272-1.83045254 37.52427671-7.3218101 64.06583831-40.26995552 64.06583831-78.7094585V337.19178399c0-22.88065653-10.06748889-44.84608682-27.45678785-60.40493325-14.64362017-12.81316766-32.94814542-20.13497775-53.08312318-20.13497777H278.76545481c-32.94814542 0-63.15061206 21.05020402-75.04855346 52.16789693-0.91522626 3.66090506-5.49135757 5.49135757-9.15226261 3.66090504-3.66090506-0.91522626-5.49135757-5.49135757-3.66090506-9.15226262 13.72839391-36.60905046 49.42221811-61.32015954 87.86172113-61.32015952h440.2238319c22.88065653 0 44.84608682 8.23703635 61.32015951 22.88065652 20.13497775 17.38929897 32.03291916 43.93086055 32.03291918 70.47242217v307.51602393c0 44.84608682-32.03291916 83.28558982-75.04855347 92.43785243-5.49135757 2.74567878-11.8979414 2.74567878-18.30452522 2.7456788z" fill="#961919" p-id="5520"></path><path d="M191.81895994 360.98766681c-3.66090506 0-7.3218101-2.74567878-7.32181008-7.32181011v-16.47407271c0-3.66090506 2.74567878-7.3218101 7.32181008-7.32181007s7.3218101 2.74567878 7.32181009 7.32181007v16.47407271c-0.91522626 3.66090506-3.66090506 7.3218101-7.32181009 7.32181011z" fill="#961919" p-id="5521"></path><path d="M686.95636755 637.38599786l-59.48970702 0.91522625c-2.74567878 0-5.49135757 2.74567878-4.5761313 5.49135756l3.66090504 57.65925451v0.91522625c0 5.49135757-8.23703635 7.3218101-10.06748888 1.83045254l-19.21975151-55.82880199s0-0.91522626-0.91522627-0.91522625c-0.91522626-1.83045253-3.66090506-2.74567878-5.49135757-1.8304525l-50.33744438 20.13497774-5.49135757 1.83045254c-5.49135757 1.83045253-9.15226261-5.49135757-4.57613129-9.15226266l46.67653932-35.69382418c1.83045253-1.83045253 2.74567878-4.5761313 0.91522627-7.3218101l-37.52427673-45.76131307c-3.66090506-4.5761313 1.83045253-10.98271516 6.40658384-7.32181009l3.66090505 1.83045252 44.8460868 31.11769289c2.74567878 1.83045253 5.49135757 0.91522626 7.32181008-1.83045252v-0.91522627l31.11769292-48.50699187c2.74567878-4.5761313 9.15226261-1.83045253 9.15226263 2.74567878v1.83045252l-17.38929898 56.74402825c-0.91522626 2.74567878 0.91522626 5.49135757 3.66090506 6.40658382l56.74402821 14.64362019c7.3218101 2.74567878 6.40658382 10.98271516 0.91522628 10.98271514z" fill="#FFFFFF" p-id="5522"></path><path d="M621.06007671 711.51932506c-3.66090506 0-6.40658382-1.83045253-8.23703635-5.49135758l-19.21975152-55.82880198c-0.91522626-0.91522626-1.83045253-0.91522626-1.83045253-0.91522627l-54.91357568 21.96543033c-4.5761313 1.83045253-8.23703635 0-10.98271514-3.66090505-1.83045253-3.66090506-0.91522626-8.23703635 1.83045251-10.98271516l46.67653935-35.69382421 0.91522625-0.91522627v-0.91522625l-37.52427672-45.76131308c-2.74567878-3.66090506-2.74567878-8.23703635 0-10.98271513 2.74567878-2.74567878 7.3218101-3.66090506 10.98271515-0.9152263l3.66090504 1.83045257 45.76131307 31.11769287h0.91522627s0.91522626 0 0.91522626-0.91522625v-0.91522627l31.11769291-49.42221813c1.83045253-2.74567878 5.49135757-4.5761313 9.1522626-3.66090506 3.66090506 0.91522626 6.40658382 3.66090506 6.40658385 7.3218101v2.74567877l-17.38929897 56.74402824v0.91522627l0.91522625 0.91522626 56.74402824 14.64362019c4.5761313 0.91522626 6.40658382 4.5761313 6.40658383 9.15226261-0.91522626 4.5761313-3.66090506 7.3218101-8.23703639 7.32181009l-59.48970699 0.91522627s-0.91522626 0-0.91522626 0.91522625v0.91522627l3.66090505 59.48970702c0 4.5761313-2.74567878 8.23703635-6.40658382 8.23703634 0 1.83045253 0 1.83045253-0.91522626 1.83045254z m-29.2872404-69.5571959c2.74567878 0 5.49135757 1.83045253 7.3218101 3.66090507 0 0 0.91522626 0.91522626 0.91522626 1.8304525l19.21975152 55.82880196c0 0.91522626 0.91522626 0.91522626 1.83045252 0.91522628s1.83045253-0.91522626 0.91522626-1.83045254v-0.91522625l-3.66090506-57.65925451c0-1.83045253 0.91522626-4.5761313 1.83045252-6.40658381 1.83045253-1.83045253 3.66090506-2.74567878 6.40658385-2.74567879l59.48970699-0.91522628c0.91522626 0 1.83045253-0.91522626 1.83045253-1.83045251s0-1.83045253-0.91522625-1.83045251l-56.74402824-14.6436202c-2.74567878-0.91522626-4.5761313-1.83045253-5.49135757-4.5761313-0.91522626-1.83045253-0.91522626-4.5761313-0.91522624-6.40658383l17.38929895-56.74402824c0-0.91522626-0.91522626-1.83045253-0.91522627-1.83045254-0.91522626 0-0.91522626 0-1.83045249 0.91522628l-32.03291917 49.42221815c-0.91522626 1.83045253-2.74567878 3.66090506-5.49135762 3.66090503-2.74567878 0.91522626-4.5761313 0-6.4065838-0.91522626l-48.50699187-33.86337167c-0.91522626-0.91522626-1.83045253 0-1.83045251 0s-0.91522626 0.91522626 0 1.83045252l37.52427672 45.7613131c1.83045253 1.83045253 1.83045253 3.66090506 1.83045251 6.40658381 0 2.74567878-1.83045253 4.5761313-3.66090503 5.49135757l-46.67653935 35.69382422c-0.91522626 0.91522626-0.91522626 1.83045253 0 1.83045253 0 0 0.91522626 0.91522626 1.83045252 0.91522625l54.9135757-21.9654303c0 1.83045253 0.91522626 0.91522626 1.83045252 0.91522627z" fill="#961919" p-id="5523"></path><path d="M686.95636755 637.38599786l-59.48970702 0.91522625c-2.74567878 0-5.49135757 2.74567878-4.5761313 5.49135756l3.66090504 57.65925451-18.30452523-53.0831232c-0.91522626-2.74567878-3.66090506-3.66090506-6.40658382-2.74567875l-4.57613134 1.8304525c-0.91522626-1.83045253-3.66090506-2.74567878-5.49135757-1.8304525l-50.33744438 20.13497774c-1.83045253-1.83045253-1.83045253-4.5761313 0.91522624-7.32181012l46.67653935-35.69382418c1.83045253-1.83045253 2.74567878-4.5761313 0.91522627-7.3218101l-37.52427672-45.76131307c-0.91522626-1.83045253-1.83045253-3.66090506-0.91522628-4.57613131l44.84608682 31.1176929c2.74567878 1.83045253 5.49135757 0.91522626 7.32181013-1.83045254v-0.91522625l3.66090504 1.83045252c2.74567878 1.83045253 5.49135757 0.91522626 7.32181009-1.83045252l30.20246662-47.59176564v1.83045254l-17.38929896 56.74402824c-0.91522626 2.74567878 0.91522626 5.49135757 3.66090505 6.40658383l56.74402822 14.64362018c5.49135757 3.66090506 4.5761313 11.8979414-0.91522625 11.89794141z" fill="#F9F18F" p-id="5524"></path><path d="M686.95636755 637.38599786l-59.48970702 0.91522625c-2.74567878 0-5.49135757 2.74567878-4.5761313 5.49135756l3.66090504 57.65925451-12.81316766-37.52427672-0.91522625-21.05020404c0-2.74567878 1.83045253-5.49135757 4.57613128-5.49135756l59.48970701-0.91522628c5.49135757 0 6.40658382-8.23703635 0.91522626-10.06748886l-56.7440282-14.64362019c-2.74567878-0.91522626-4.5761313-3.66090506-3.66090507-6.40658382l8.23703636-27.45678785 19.21975149-30.20246666v1.83045251l-17.38929896 56.74402824c-0.91522626 2.74567878 0.91522626 5.49135757 3.66090505 6.40658386l56.74402822 14.64362017c5.49135757 1.83045253 4.5761313 10.06748889-0.91522625 10.06748888z" fill="#F4DD58" p-id="5525"></path><path d="M621.06007671 711.51932506c-3.66090506 0-6.40658382-1.83045253-8.23703635-5.49135758l-19.21975152-55.82880198c-0.91522626-0.91522626-1.83045253-0.91522626-1.83045253-0.91522627l-54.91357568 21.96543033c-4.5761313 1.83045253-8.23703635 0-10.98271514-3.66090505-1.83045253-3.66090506-0.91522626-8.23703635 1.83045251-10.98271516l46.67653935-35.69382421 0.91522625-0.91522627v-0.91522625l-37.52427672-45.76131308c-2.74567878-3.66090506-2.74567878-8.23703635 0-10.98271513 2.74567878-2.74567878 7.3218101-3.66090506 10.98271515-0.9152263l48.50699185 33.86337171h0.91522626s0.91522626 0 0.91522627-0.91522627v-0.91522625l31.1176929-49.42221814c2.74567878-3.66090506 6.40658382-4.5761313 10.98271514-2.7456788 3.66090506 1.83045253 5.49135757 5.49135757 4.57613132 10.06748888l-17.38929898 56.74402824v0.91522625l0.91522627 0.91522628 56.74402821 14.64362018c4.5761313 0.91522626 6.40658382 4.5761313 6.40658383 9.1522626-0.91522626 4.5761313-3.66090506 7.3218101-8.23703635 7.3218101l-59.48970701 0.91522627s-0.91522626 0-0.91522624 0.91522626v0.91522625l3.66090503 58.57448076c0 4.5761313-2.74567878 8.23703635-6.40658382 9.15226263 0.91522626 0 0.91522626 0 0 0z m-29.2872404-69.5571959c2.74567878 0 5.49135757 1.83045253 7.3218101 3.66090507 0 0 0.91522626 0.91522626 0.91522626 1.8304525l19.21975152 55.82880196c0 0.91522626 0.91522626 0.91522626 1.83045252 0.91522628s1.83045253-0.91522626 0.91522626-1.83045254l-3.66090506-58.57448076c0-1.83045253 0.91522626-4.5761313 1.83045252-6.40658381 1.83045253-1.83045253 3.66090506-2.74567878 6.40658385-2.74567879l59.48970699-0.91522628c0.91522626 0 1.83045253-0.91522626 1.83045253-1.83045251s0-1.83045253-0.91522625-1.83045251l-56.74402824-14.6436202c-2.74567878-0.91522626-4.5761313-1.83045253-5.49135757-4.5761313-0.91522626-1.83045253-0.91522626-4.5761313-0.91522624-6.40658383l17.38929895-56.74402824c0-0.91522626 0-1.83045253-0.91522627-1.83045254s-0.91522626 0-1.83045249 0.91522628l-32.03291917 49.42221815c-0.91522626 1.83045253-2.74567878 3.66090506-5.49135762 3.66090503-2.74567878 0.91522626-4.5761313 0-6.4065838-0.91522626l-48.50699187-33.86337167c-0.91522626-0.91522626-1.83045253 0-1.83045251 0s-0.91522626 0.91522626 0 1.83045252l37.52427672 45.7613131c1.83045253 1.83045253 1.83045253 3.66090506 1.83045251 6.40658381 0 2.74567878-1.83045253 4.5761313-3.66090503 5.49135757l-46.67653935 35.69382422c-0.91522626 0.91522626-0.91522626 1.83045253 0 1.83045253 0 0 0.91522626 0.91522626 1.83045252 0.91522625l54.9135757-21.9654303c0 1.83045253 0.91522626 0.91522626 1.83045252 0.91522627z" fill="#961919" p-id="5526"></path><path d="M492.92840004 581.5571959H378.52511731s-4.5761313-21.96543027 24.71110908-19.21975149c30.20246662 2.74567878 0 0 0 0l34.77859795 8.23703635 33.86337169-8.23703635s31.1176929 1.83045253 21.05020401 19.21975149z" fill="#FFFFFF" p-id="5527"></path><path d="M495.67407882 585.21810095h-118.979414l-0.91522627-2.74567878s-1.83045253-9.15226261 3.66090505-16.47407272c4.5761313-5.49135757 12.81316766-8.23703635 24.71110908-7.32181011l12.81316767 0.91522624v1.83045253l21.05020399 4.57613134 33.86337169-8.23703637h0.91522627c1.83045253 0 20.13497775 1.83045253 24.71110905 10.98271515 1.83045253 2.74567878 2.74567878 7.3218101-0.91522625 12.81316767l-0.91522627 3.66090505z m-113.48805643-7.32181009h108.91192514c0.91522626-2.74567878 0-4.5761313 0-4.57613132-2.74567878-4.5761313-12.81316766-7.3218101-19.2197515-7.32181009l-33.86337169 8.23703635-35.69382421-8.23703635c-9.15226261-0.91522626-15.55884645 0.91522626-18.30452522 4.57613131-1.83045253 1.83045253-1.83045253 5.49135757-1.83045252 7.3218101z" fill="#961919" p-id="5528"></path><path d="M492.92840004 581.5571959H387.67737995s-3.66090506-17.38929897 16.47407272-19.21975149h8.23703637l30.20246661 6.40658382 4.5761313 0.91522627 30.20246664-7.32181009c9.15226261 2.74567878 22.88065653 7.3218101 15.55884645 19.21975149z" fill="#F9F18F" p-id="5529"></path><path d="M551.50288079 536.71110907l-111.65760391 36.60905047h-3.66090504l-109.82715141-35.69382421-2.7456788-0.91522626s-10.06748889-3.66090506-5.49135757-14.64362018c0.91522626-2.74567878 18.30452524-47.59176558 64.06583833-64.9810646 29.28724036-11.8979414 51.25267068-10.98271516 55.82880195-10.98271515 7.3218101 0 27.45678784 0 54.9135757 10.98271515 17.38929897 6.40658382 31.1176929 18.30452524 41.1851818 29.28724038 15.55884645 17.38929897 21.96543027 34.77859794 22.88065655 36.60905049 4.5761313 9.15226261-5.49135757 13.72839391-5.4913576 13.72839391z" fill="#FFFFFF" p-id="5530"></path><path d="M439.84527687 576.06583831h-4.57613131l-111.65760393-36.60905047c-0.91522626 0-5.49135757-2.74567878-8.23703636-7.32181009-1.83045253-3.66090506-0.91522626-7.3218101 0.9152263-11.8979414 4.5761313-11.8979414 23.79588279-50.33744441 65.89629082-66.81151711 28.37201411-10.98271516 49.42221811-10.98271516 56.74402822-10.98271514h0.91522626c22.88065653 0 43.01563429 5.49135757 55.82880195 10.98271514 15.55884645 6.40658382 30.20246662 16.4740727 42.10040805 30.20246665 12.81316766 14.64362017 20.13497775 29.28724036 23.79588281 36.60905046 1.83045253 4.5761313 1.83045253 8.23703635 0.91522625 11.8979414-1.83045253 5.49135757-7.3218101 7.3218101-8.23703634 7.32181009l-114.40328272 36.60905047z m-3.66090503-6.40658381h1.8304525l111.65760392-36.60905048s2.74567878-0.91522626 3.66090506-3.66090505c0.91522626-1.83045253 0.91522626-3.66090506-0.91522625-6.40658381-2.74567878-7.3218101-10.06748889-21.05020402-22.88065653-35.69382423-11.8979414-12.81316766-24.71110907-21.96543027-39.35472927-28.37201412-11.8979414-4.5761313-31.1176929-10.06748889-52.16789693-10.06748887H435.26914556c-6.40658382 0-26.54156159 0-53.99834944 10.06748887-40.26995552 15.55884645-58.57448076 55.82880198-61.32015955 63.15061208-0.91522626 2.74567878-0.91522626 4.5761313-0.91522625 6.40658381 0.91522626 2.74567878 3.66090506 3.66090506 3.66090507 3.66090505l2.74567878 0.91522627 110.74237767 36.60905048z m115.31850895-32.94814543z m0 0z" fill="#961919" p-id="5531"></path><path d="M551.50288079 536.71110907l-111.65760391 36.60905047h-3.66090504l-109.82715141-35.69382421c0-1.83045253 0-3.66090506 0.91522625-6.40658384 0.91522626-2.74567878 18.30452524-47.59176558 64.06583832-64.98106457 29.28724036-11.8979414 51.25267068-10.98271516 55.82880195-10.98271515 7.3218101 0 27.45678784 0 54.9135757 10.98271515 12.81316766 4.5761313 22.88065653 11.8979414 32.03291919 20.13497775 15.55884645 17.38929897 21.96543027 34.77859794 22.88065655 36.60905049 4.5761313 9.15226261-5.49135757 13.72839391-5.4913576 13.72839391z" fill="#F9F18F" p-id="5532"></path><path d="M551.50288079 533.05020402l-111.65760391 36.60905048h-3.66090504l-109.82715141-35.69382423v-2.74567878l99.75966253 32.94814544h3.66090505l111.65760392-36.60905048s10.06748889-3.66090506 5.49135757-14.64362019c-0.91522626-1.83045253-8.23703635-21.96543027-26.5415616-40.2699555 4.5761313 2.74567878 9.15226261 6.40658382 12.81316768 10.06748888 15.55884645 17.38929897 21.96543027 34.77859794 22.88065652 36.60905046 5.49135757 10.06748889-4.5761313 13.72839391-4.57613131 13.72839392z" fill="#F4DD58" p-id="5533"></path><path d="M438.93005061 573.32015954c-1.83045253 0-3.66090506-1.83045253-3.66090505-3.66090504l-4.5761313-124.4707716c0-1.83045253 1.83045253-3.66090506 3.66090505-3.66090507s3.66090506 1.83045253 3.66090503 3.66090507l4.57613131 124.4707716c-0.91522626 2.74567878-1.83045253 3.66090506-3.66090504 3.66090504z" fill="#961919" p-id="5534"></path><path d="M438.93005061 573.32015954h-0.91522627c-1.83045253-0.91522626-2.74567878-2.74567878-1.8304525-4.57613131L480.11523238 456.17119802c0.91522626-1.83045253 2.74567878-2.74567878 4.5761313-1.83045252 1.83045253 0.91522626 2.74567878 2.74567878 1.83045255 4.57613131l-44.84608681 112.57283022c-0.91522626 1.83045253-1.83045253 1.83045253-2.74567881 1.83045251z" fill="#961919" p-id="5535"></path><path d="M438.93005061 573.32015954c-0.91522626 0-2.74567878-0.91522626-2.74567877-1.83045251l-54.91357572-112.57283022c-0.91522626-1.83045253 0-3.66090506 1.83045253-4.57613131 1.83045253-0.91522626 3.66090506 0 4.5761313 1.83045252l54.9135757 112.57283021c0.91522626 1.83045253 0 3.66090506-1.83045251 4.57613131h-1.83045253z" fill="#961919" p-id="5536"></path><path d="M438.93005061 573.32015954c-0.91522626 0-1.83045253 0-2.74567877-0.91522625-0.91522626-1.83045253-0.91522626-3.66090506 0-4.57613131l94.26830496-85.11604234c1.83045253-0.91522626 3.66090506-0.91522626 4.57613129 0 0.91522626 1.83045253 0.91522626 3.66090506 0 4.57613129l-94.26830495 85.11604236c-0.91522626 0.91522626-1.83045253 0.91522626-1.83045253 0.91522625z" fill="#961919" p-id="5537"></path><path d="M438.93005061 573.32015954c-0.91522626 0-1.83045253 0-2.74567877-0.91522625l-94.26830496-85.11604236c-1.83045253-0.91522626-1.83045253-3.66090506 0-4.57613129 0.91522626-1.83045253 3.66090506-1.83045253 4.5761313 0l94.26830496 85.11604234c1.83045253 0.91522626 1.83045253 3.66090506 0 4.57613131 0 0.91522626-0.91522626 0.91522626-1.83045253 0.91522625z" fill="#961919" p-id="5538"></path><path d="M439.84527687 576.06583831h-4.57613131l-111.65760393-36.60905047c-0.91522626 0-5.49135757-2.74567878-8.23703636-7.32181009-1.83045253-3.66090506-0.91522626-7.3218101 0.9152263-11.8979414 4.5761313-11.8979414 23.79588279-50.33744441 65.89629082-66.81151711 28.37201411-10.98271516 49.42221811-10.98271516 56.74402822-10.98271514h0.91522626c22.88065653 0 43.01563429 5.49135757 55.82880195 10.98271514 14.64362017 5.49135757 27.45678784 14.64362017 38.43950302 25.62633534 16.4740727 17.38929897 24.71110907 35.6938242 27.45678784 41.18518177 1.83045253 4.5761313 1.83045253 8.23703635 0.91522625 11.8979414-1.83045253 5.49135757-7.3218101 7.3218101-8.23703634 7.32181009l-114.40328272 36.60905047z m-3.66090503-6.40658381h1.8304525l111.65760392-36.60905048s2.74567878-0.91522626 3.66090506-3.66090505c0.91522626-1.83045253 0.91522626-3.66090506-0.91522625-6.40658381-1.83045253-5.49135757-10.06748889-22.88065653-25.62633534-39.35472927-10.06748889-10.98271516-22.88065653-19.21975149-35.69382421-24.71110908-11.8979414-4.5761313-31.1176929-10.06748889-52.16789691-10.06748887H436.18437184c-6.40658382 0-26.54156159 0-53.99834945 10.06748887-40.26995552 15.55884645-58.57448076 55.82880198-61.32015955 63.15061208-0.91522626 2.74567878-0.91522626 4.5761313-0.91522627 6.40658381 0.91522626 2.74567878 3.66090506 3.66090506 3.66090506 3.66090505l11.8979414 3.66090504 100.67488881 33.86337171z m115.31850895-32.94814543z m0 0z" fill="#961919" p-id="5539"></path><path d="M492.92840004 581.5571959h-9.15226261c7.3218101-11.8979414-7.3218101-16.4740727-15.55884646-18.30452522l3.66090506-0.91522627s31.1176929 1.83045253 21.05020401 19.21975149z" fill="#F4DD58" p-id="5540"></path><path d="M495.67407882 585.21810095h-118.979414l-0.91522627-2.74567878s-1.83045253-9.15226261 3.66090505-16.47407272c4.5761313-5.49135757 12.81316766-8.23703635 24.71110908-7.32181011h0.91522623l32.94814543 7.32181011 33.86337169-8.23703637h0.91522627s2.74567878 0 6.40658383 0.91522626c10.06748889 1.83045253 16.4740727 5.49135757 19.21975148 10.98271516 1.83045253 3.66090506 0.91522626 8.23703635-1.83045251 12.81316767l-0.91522627 2.74567878z m-113.48805643-7.32181009h108.91192514c0.91522626-2.74567878 0.91522626-3.66090506 0-4.57613132-0.91522626-2.74567878-6.40658382-5.49135757-14.64362018-7.32181009-1.83045253 0-3.66090506-0.91522626-4.57613132-0.91522626l-33.86337169 8.23703635-35.69382421-8.23703635c-9.15226261-0.91522626-15.55884645 0.91522626-18.30452522 4.57613131-1.83045253 3.66090506-1.83045253 6.40658382-1.83045252 8.23703636z" fill="#961919" p-id="5541"></path><path d="M430.69301426 584.30287467a8.23703635 7.3218101 90 1 0 14.6436202 0 8.23703635 7.3218101 90 1 0-14.6436202 0Z" fill="#F9F18F" p-id="5542"></path><path d="M438.01482434 596.20081609c-6.40658382 0-10.98271516-5.49135757-10.98271513-11.89794142s4.5761313-11.8979414 10.98271513-11.89794138 10.98271516 5.49135757 10.98271516 11.89794138-5.49135757 11.8979414-10.98271516 11.89794142z m0-16.47407271c-1.83045253 0-3.66090506 1.83045253-3.66090503 5.49135757s1.83045253 5.49135757 3.66090503 5.49135755 3.66090506-1.83045253 3.66090508-5.49135755-1.83045253-5.49135757-3.66090508-5.49135757z" fill="#961919" p-id="5543"></path><path d="M778.47899369 769.17857956c-19.21975149 0-29.28724036-5.49135757-38.43950297-10.06748888-8.23703635-4.5761313-15.55884645-8.23703635-32.03291916-8.23703638-15.55884645 0-22.88065653 3.66090506-32.03291917 8.23703638s-19.21975149 10.06748889-38.43950297 10.06748888-29.28724036-5.49135757-38.43950301-10.06748888c-8.23703635-4.5761313-15.55884645-8.23703635-32.03291918-8.23703638-15.55884645 0-22.88065653 3.66090506-32.03291914 8.23703638s-19.21975149 10.06748889-38.43950299 10.06748888-29.28724036-5.49135757-38.439503-10.06748888c-8.23703635-4.5761313-15.55884645-8.23703635-32.03291914-8.23703638-15.55884645 0-22.88065653 3.66090506-32.0329192 8.23703638s-19.21975149 10.06748889-38.43950296 10.06748888-29.28724036-5.49135757-38.43950297-10.06748888c-8.23703635-4.5761313-15.55884645-8.23703635-32.03291919-8.23703638-15.55884645 0-22.88065653 3.66090506-32.03291916 8.23703638s-19.21975149 10.06748889-38.43950298 10.06748888-29.28724036-5.49135757-38.43950299-10.06748888c-8.23703635-4.5761313-15.55884645-8.23703635-32.03291917-8.23703638-3.66090506 0-7.3218101-2.74567878-7.32181008-7.3218101s2.74567878-7.3218101 7.32181008-7.32181008c19.21975149 0 29.28724036 5.49135757 38.43950299 10.06748889 8.23703635 4.5761313 15.55884645 8.23703635 32.03291917 8.23703634 15.55884645 0 22.88065653-3.66090506 32.03291915-8.23703634s19.21975149-10.06748889 38.43950299-10.06748889 29.28724036 5.49135757 38.43950299 10.06748889c8.23703635 4.5761313 15.55884645 8.23703635 32.03291917 8.23703634s22.88065653-3.66090506 32.03291915-8.23703634 19.21975149-10.06748889 38.43950301-10.06748889 29.28724036 5.49135757 38.43950299 10.06748889c8.23703635 4.5761313 15.55884645 8.23703635 32.03291915 8.23703634 15.55884645 0 22.88065653-3.66090506 32.03291916-8.23703634s19.21975149-10.06748889 38.43950297-10.06748889 29.28724036 5.49135757 38.43950303 10.06748889c8.23703635 4.5761313 15.55884645 8.23703635 32.03291916 8.23703634s22.88065653-3.66090506 32.03291912-8.23703634 19.21975149-10.06748889 38.43950302-10.06748889 29.28724036 5.49135757 38.439503 10.06748889c8.23703635 4.5761313 15.55884645 8.23703635 32.03291913 8.23703634 15.55884645 0 22.88065653-3.66090506 32.0329192-8.23703634s19.21975149-10.06748889 38.43950298-10.06748889c3.66090506 0 7.3218101 2.74567878 7.32181007 7.32181008s-2.74567878 7.3218101-7.32181007 7.3218101c-15.55884645 0-22.88065653 3.66090506-32.03291915 8.23703638s-19.21975149 10.06748889-38.43950303 10.06748888z" fill="#961919" p-id="5544"></path></svg>